<svg width="49" height="95" viewBox="0 0 49 95" fill="none" xmlns="http://www.w3.org/2000/svg">
<path d="M47.8924 61.9266C46.2495 56.6862 43.4937 51.9699 39.6162 47.7686C35.7475 43.5672 31.8081 39.5105 27.8069 35.5802C18.3472 26.0482 15.0968 18.3051 17.7112 12.1793C21.3238 3.69535 31.8876 2.87316 35.6503 2.80088H40.1903C40.9499 2.80088 41.5594 2.16842 41.5594 1.40044C41.5594 1.24684 41.5329 1.09324 41.4799 0.957718C41.5505 0.957718 41.6212 0.948681 41.6919 0.948681C41.6124 0.930611 41.5417 0.921575 41.4711 0.91254C41.2767 0.379469 40.7733 0 40.1903 0H28.3634C28.3016 0 28.2397 0.00903207 28.1779 0.0180672C23.6998 0.135523 19.4777 0.99386 15.5119 2.61114C9.39086 5.10483 5.02753 9.18869 2.41306 14.8537C0.726027 18.5039 -0.0600797 22.0727 0.0105815 25.5603C-0.0600797 27.8462 0.222568 30.0778 0.876184 32.2734C2.51906 37.5137 5.27484 42.23 9.15238 46.4314C13.0211 50.6327 16.9604 54.6894 20.9616 58.6197C30.4214 68.1517 33.6718 75.8948 31.0574 82.0206C27.4448 90.5046 16.881 91.3268 13.1182 91.3991H2.38657C1.62696 91.3991 1.0175 92.0315 1.0175 92.7995C1.0175 92.9531 1.044 93.1067 1.097 93.2422C1.02634 93.2422 0.95568 93.2512 0.885019 93.2512C0.964513 93.2693 1.03517 93.2784 1.10584 93.2874C1.30015 93.8205 1.80361 94.1999 2.38657 94.1999H20.3963C20.4582 94.1999 20.52 94.1909 20.5818 94.1819C25.06 94.0644 29.282 93.2061 33.2479 91.5888C39.3689 89.0951 43.7322 85.0112 46.3467 79.3462C48.0337 75.696 48.8198 72.1272 48.7492 68.6396C48.8287 66.3538 48.546 64.1131 47.8924 61.9266Z" fill="#202427"/>
</svg>
