<svg width="18" height="72" viewBox="0 0 18 72" fill="none" xmlns="http://www.w3.org/2000/svg">
<path d="M17.5416 23.1389V15.6578C17.5416 10.4807 16.3934 6.60466 14.1057 4.01159C12.1184 1.70764 9.5481 0.397548 6.28002 0.0813195C5.40558 3.58125e-06 0.185486 0 0 0C0 1.26491 -1.48233e-06 2.86413 0.00883117 4.66211H0C0 7.25519 0.00883306 11.2306 0.0176657 15.4862C0.00883306 18.4497 0 21.3228 0 23.6268V46.6301C0 47.2084 0.00883009 47.7686 0.035328 48.3197V55.8008C0.035328 60.9779 1.18358 64.8539 3.47123 67.447C5.45858 69.751 8.02888 71.0611 11.297 71.3773C12.1714 71.4586 13.9026 71.4676 15.1745 71.4676C16.3404 71.4676 17.3915 71.4586 17.577 71.4586C17.577 70.1937 17.577 68.5945 17.5681 66.7965H17.577C17.577 64.2034 17.5681 60.228 17.5593 55.9724C17.5681 53.0089 17.577 50.1358 17.577 47.8318V24.8285C17.5681 24.2502 17.5593 23.69 17.5416 23.1389Z" fill="#202427"/>
</svg>
