<svg width="49" height="95" viewBox="0 0 49 95" fill="none" xmlns="http://www.w3.org/2000/svg">
<path d="M48.4383 26.4545C48.4383 17.8712 46.0269 11.3388 41.2043 6.83933C36.3817 2.34889 29.6336 0.0991488 20.9422 0.0991488C19.8823 0.0991488 6.74814 -0.081551 2.69395 0.0449404H1.36905C0.609442 0.0449404 0 0.677393 0 1.44538C0 2.21336 0.618275 2.84582 1.36905 2.84582H12.1537C19.2022 3.13494 24.0248 4.80644 27.0632 8.81802C30.4197 13.2543 32.0978 19.1271 32.0978 26.4455V27.5478H32.0802C32.0802 30.0324 32.089 33.782 32.0978 37.8388V43.3682C32.089 46.2143 32.0802 48.9519 32.0802 51.1655V69.5158C32.0802 70.094 32.089 70.6542 32.1155 71.2054V78.6864C32.1155 83.8635 33.2373 87.7396 35.4808 90.3327C37.4239 92.6366 39.9412 93.9467 43.1387 94.2629C44.5254 94.3985 48.0673 94.3443 48.4206 94.3443C48.4206 91.1639 48.4118 85.9145 48.4029 80.6019C48.4118 77.042 48.4206 73.4732 48.4206 70.7175V61.1764C48.4294 60.1554 48.4383 58.7731 48.4383 56.5685V26.4545Z" fill="#202427"/>
</svg>
