<svg width="77" height="13" viewBox="0 0 77 13" fill="none" xmlns="http://www.w3.org/2000/svg">
<path d="M6.29768 2.20457C7.71091 2.20457 8.92098 2.81895 9.69825 3.93027L9.9279 4.25553L11.7828 3.19843L11.5001 2.79185C10.2812 1.02097 8.38219 0.00903703 6.30651 0.00903703C2.77345 0.00903703 0 2.80992 0 6.37878C0 9.94764 2.77345 12.7485 6.30651 12.7485C8.69133 12.7485 10.0162 12.0619 11.4913 10.8873L11.6591 10.7518V6.25229H5.38792V8.38457H9.57459V9.7037C8.85915 10.1374 7.89639 10.544 6.30651 10.544C3.85987 10.544 2.15517 8.82729 2.15517 6.37878C2.15517 3.93027 3.85987 2.20457 6.29768 2.20457ZM24.5724 4.26457C24.5724 2.93641 24.0071 1.79799 22.9914 1.07518C21.9668 0.343336 20.7567 0.243948 19.6968 0.243948H14.0174V12.4955H16.1726V8.28519H19.4583L22.6558 12.4955H25.4292L21.8961 7.89668C23.6008 7.32747 24.5724 6.03545 24.5724 4.26457ZM22.3819 4.26457C22.3819 4.88799 22.1876 5.33974 21.7813 5.6379C21.2955 6.00834 20.6419 6.08062 19.688 6.08062H16.1638V2.44851H19.688C20.6419 2.44851 21.2955 2.52079 21.7813 2.89123C22.1876 3.18939 22.3819 3.64115 22.3819 4.26457ZM32.4423 0C28.8474 0 26.1358 2.73764 26.1358 6.36975C26.1358 10.0019 28.8474 12.7395 32.4423 12.7395C36.0372 12.7395 38.7488 10.0019 38.7488 6.36975C38.7488 2.73764 36.0372 0 32.4423 0ZM36.5672 6.36975C36.5672 8.80019 34.8713 10.5078 32.4423 10.5078C30.0134 10.5078 28.3175 8.80922 28.3175 6.36975C28.3175 3.93027 30.0134 2.23167 32.4423 2.23167C34.8713 2.23167 36.5672 3.93931 36.5672 6.36975ZM49.2685 7.28229C49.2685 8.31229 49.0654 9.07124 48.6679 9.523C48.0408 10.2368 47.2547 10.544 46.0623 10.544C44.8699 10.544 44.0926 10.2368 43.4655 9.53203C43.068 9.07124 42.8649 8.32133 42.8649 7.28229V0.252985H40.7097V7.28229C40.7097 8.3394 40.8245 9.86633 41.8049 10.9686C42.8825 12.1883 44.1986 12.7395 46.0623 12.7395C47.926 12.7395 49.242 12.1974 50.3196 10.9686C51.3 9.8573 51.4149 8.33036 51.4149 7.28229V0.252985H49.2597V7.28229H49.2685ZM63.4626 1.07518C62.438 0.343336 61.2191 0.243948 60.168 0.243948H54.3385V12.4955H56.4936V8.28519H60.168C61.2279 8.28519 62.438 8.1858 63.4626 7.45396C64.4872 6.73115 65.0436 5.59273 65.0436 4.26457C65.0436 2.93641 64.4872 1.79799 63.4626 1.07518ZM62.8708 4.26457C62.8708 4.88799 62.6765 5.33974 62.2702 5.6379C61.7844 6.00834 61.1308 6.08062 60.168 6.08062H56.4936V2.44851H60.168C61.1219 2.44851 61.7756 2.52079 62.2702 2.89123C62.6677 3.18939 62.8708 3.64115 62.8708 4.26457ZM69.0095 10.3271V7.11966H75.0334V4.95123H69.0095V2.41237H75.9785V0.243948H66.8543V12.4955H76.1375V10.3271H69.0095Z" fill="#202427"/>
</svg>
