<svg width="48" height="123" viewBox="0 0 48 123" fill="none" xmlns="http://www.w3.org/2000/svg">
<path fill-rule="evenodd" clip-rule="evenodd" d="M47.2015 60.3236C47.5637 60.432 47.5637 59.5827 47.2015 59.6911V56.8632C47.1397 56.5921 47.8287 56.0771 47.2015 55.9145C47.2457 55.7789 47.1132 55.7699 46.9807 55.7609V55.291C47.3429 55.3182 47.3429 54.3243 46.9807 54.3424V53.7099C47.7227 53.5473 47.5283 51.8938 47.2015 51.5053V49.7706C47.1839 49.5176 47.3075 49.1743 46.9807 49.1381V48.9846C47.1662 49.0117 47.1927 48.9213 47.2015 48.831C47.5637 48.9032 47.5637 47.9726 47.2015 48.0449H46.9807V47.1053C47.3517 46.8342 47.3517 45.488 46.9807 45.2169V43.0124H47.2015V39.0821C47.1839 38.8291 47.3075 38.4767 46.9807 38.4496V37.0311C46.8482 36.751 47.2457 36.1095 46.7599 36.0824V34.5103C46.8924 34.5013 47.0249 34.4832 46.9807 34.3567C46.9454 34.167 47.016 33.905 46.7599 33.8869V33.5707C47.2545 33.5074 46.9366 32.7394 46.7599 32.622V32.4684H46.9807V31.6823C46.9277 31.5558 46.9719 31.3751 46.7599 31.3661C46.6097 30.571 47.0425 30.0922 46.7599 29.6314C47.0249 29.6043 46.9454 29.3422 46.9807 29.1615V29.0079H46.7599V27.2732C46.6186 26.8486 47.0425 26.0264 46.5391 25.8547V24.2826C47.0337 24.2103 46.6274 23.5056 46.7599 23.1803C46.7246 22.9454 46.8394 22.6021 46.5391 22.5479V20.3433C46.4596 19.9096 47.175 19.241 46.5391 18.9248V14.6783C46.3978 14.1 46.8306 13.1062 46.3183 12.7899V9.17591H46.5391V8.85968C46.4861 8.73319 46.5303 8.55249 46.3183 8.54345V7.91099H46.5391V6.80871C46.3978 6.02266 46.8306 4.82099 46.3183 4.28792V3.97169C46.4861 3.99879 46.4861 3.96266 46.5832 3.89038C46.5214 3.70064 46.5656 3.75485 46.3183 3.65546C46.2741 3.52897 46.0975 3.50187 46.0975 3.33923C46.1946 3.25792 45.5145 3.29406 45.3997 3.04107C45.3732 2.77002 44.5694 2.56222 44.0924 2.23695C43.0325 2.38151 43.2887 3.45669 42.5291 3.80906C42.4584 4.1795 42.0963 4.45959 42.5291 4.75774V4.91134C41.3455 5.70643 41.9991 4.18853 40.9657 3.80906V3.33923C40.9922 3.05915 40.6919 3.00494 40.7449 2.70678C40.1089 2.67968 39.526 2.68871 39.6319 3.1766H38.519C38.3159 2.89651 38.0244 2.68871 37.6269 2.54415H36.514V2.39055H36.2932C35.3481 2.21888 34.1734 2.20985 32.9545 2.23695C32.5835 1.97493 31.6472 2.11046 30.9494 2.08336C29.3154 1.45994 24.8372 1.68581 22.7086 1.76713H22.4878C22.108 2.02915 20.7301 1.64968 20.2619 1.4509V1.13467C19.7496 1.08046 19.4052 1.16178 19.149 1.28827C16.1548 1.80327 14.1497 0.140809 11.5706 0.65581C10.9611 0.773266 11.1201 0.339583 10.6785 0.339583H10.4577C10.493 -0.00375102 9.66276 0.267304 9.34478 0.185988H9.12397C8.49685 -0.00374938 7.58708 0.0143156 6.67732 0.0323858C5.29942 0.0685262 3.47106 -0.274803 2.66729 0.664847C2.5348 0.99011 2.11966 1.1166 2.22565 1.61353H2.00484C1.6427 1.55028 1.25406 2.20081 1.78402 2.24599V3.34827C1.29823 3.32117 1.68686 3.90844 1.5632 4.13432V6.02266H1.34239V7.91099C1.51904 8.98617 1.10391 9.6367 0.900756 10.4318V11.3714C1.03325 11.3624 1.16574 11.3443 1.12157 11.2178H1.34239C1.29823 11.3534 1.43071 11.3624 1.5632 11.3714V11.525C1.53671 11.8051 1.83702 11.8593 1.78402 12.1575H0.891928C0.830099 12.4105 1.10391 12.4285 1.11274 12.6273H0.891928C0.909593 13.4224 0.512124 13.9284 0.671112 14.8319C0.803602 15.3469 0.520957 15.5637 0.450295 15.9342V16.404C0.149985 16.4492 0.26481 16.8015 0.229479 17.0364V18.9248C0.0969892 18.9338 -0.0355005 18.9519 0.00866273 19.0784C0.0439933 19.3133 -0.0708311 19.6566 0.229479 19.7108V19.8644H0.00866273V20.6505C0.0439933 20.8402 -0.0266679 21.0932 0.229479 21.1203V21.4365C0.361969 21.816 -0.0531658 22.575 0.450295 22.6924C0.00866275 23.2526 0.556287 23.5327 0.450295 24.2645C0.423797 24.5446 0.724108 24.5988 0.671112 24.897C0.167651 25.0144 0.582785 25.7824 0.450295 26.1529V27.4087C0.467961 27.6617 0.344304 28.005 0.671112 28.0412V28.1948C0.158818 28.9808 0.494459 30.5168 0.891928 31.1854V32.4503C1.01559 33.5616 0.644614 34.3387 1.33356 34.8085V34.9621H0.662284C0.785941 35.2422 0.777108 35.6126 1.10392 35.7481V35.9017C1.00676 36.227 1.25407 36.3173 1.32473 36.5342C1.35123 36.9408 1.44839 37.2841 1.76637 37.4829C1.73103 37.772 1.01558 37.5823 0.874259 37.7991C1.71336 38.4587 0.370806 38.7387 1.54555 39.055V39.2086H1.32473C1.44839 39.5609 0.900766 39.4345 0.8831 39.6784C0.326643 39.7416 1.09508 40.1302 1.55438 39.9946C1.71336 40.1392 1.96067 40.2295 2.22565 40.3109C2.03134 40.4373 2.09316 40.7445 1.78402 40.7807H0.891928C0.830099 40.5277 1.10391 40.5096 1.11274 40.3109C0.503291 40.1573 0.459128 41.1873 0.671112 41.0969C1.39539 41.4854 0.591613 41.9823 1.5632 42.1992H2.00484V42.8317C1.74869 42.8045 1.60737 42.8678 1.5632 42.9852C1.76636 43.2653 2.05784 43.4731 2.45531 43.6177V43.7713C2.53481 44.0424 2.27866 44.0695 2.01368 44.0875H1.57205C1.51905 43.8074 1.19223 43.7261 0.67994 43.7713C0.98025 44.2411 1.81052 44.3315 2.24332 44.72C2.18149 45.2711 1.25407 44.4399 1.35123 44.8736H0.909597V45.1898C1.05975 45.5422 1.58088 45.9759 1.13041 46.2921C2.10201 46.6535 2.44647 47.8461 2.02251 48.3431C1.6427 48.334 1.44839 48.4605 1.35123 48.6593C1.17458 48.8038 1.11275 49.0117 1.13041 49.2917C0.803605 49.8158 1.55438 50.2585 0.909597 51.0265C1.11275 51.5053 0.591622 52.2553 0.909597 52.2824C1.04209 52.5624 0.644617 53.2039 1.13041 53.231V53.5473C0.565124 54.1255 1.7222 55.273 1.35123 55.7518C0.91843 55.6796 0.635785 56.4746 1.13041 56.5379V56.6915C1.25407 56.9174 0.874266 57.5046 1.35123 57.4775V57.6311C1.46605 57.7576 1.58088 57.8841 1.57205 58.101C1.27174 58.1461 1.38656 58.4985 1.35123 58.7334C1.05092 58.7786 1.16574 59.131 1.13041 59.3659C0.971426 61.4711 1.6957 63.7118 2.02251 65.6633V66.2958C1.53671 66.2687 1.92535 66.856 1.80169 67.0819C1.81936 67.3348 1.6957 67.6782 2.02251 67.7143V68.0305C1.65154 68.0486 1.65154 69.1148 2.02251 69.1328V72.7559C1.66037 72.7288 1.66037 73.7226 2.02251 73.7046C2.04017 73.9576 1.91651 74.3009 2.24332 74.337C1.68687 74.6171 2.00484 74.5358 2.02251 75.1231V75.2767C1.89885 75.873 1.49255 77.0927 2.02251 77.6348V78.5835C1.70453 79.0172 2.00484 79.4057 1.80169 80.1556C1.78402 80.3815 1.76636 80.5984 2.02251 80.6255V81.8813C1.66037 81.8091 1.66037 82.7397 2.02251 82.6674C1.98718 82.8481 2.0755 82.9475 2.24332 82.9836C2.17266 83.345 2.27865 83.589 2.46414 83.7697C2.98527 83.9775 2.80861 84.6822 3.13542 85.0256C3.39156 85.0527 3.53289 84.9894 3.57705 84.872C3.79786 84.8629 3.7537 84.6822 3.79786 84.5557C3.69187 83.9956 4.16001 83.0378 3.12659 83.1372V82.9836C3.32091 82.9113 3.52406 82.8481 3.56822 82.6674C3.8332 82.6403 3.75371 82.3783 3.78904 82.1976C3.74487 82.0711 3.56822 82.044 3.56822 81.8813C3.49756 81.5199 3.60355 81.276 3.78904 81.0953C3.85087 80.8423 3.57705 80.8242 3.56822 80.6255C4.40732 80.4086 3.45339 79.2883 4.2395 79.3696C4.36315 79.6497 3.97452 80.2912 4.46031 80.3183V80.6345C4.6988 81.276 4.6988 81.7277 4.46031 82.3692C4.54864 82.7487 4.05401 82.7126 4.2395 83.1553C4.22183 83.3812 4.20417 83.598 4.46031 83.6251V83.7787C4.5928 84.1582 4.17767 84.9171 4.68113 85.0346V85.5044C4.16 85.8387 4.68996 86.7513 4.90195 87.0765C5.29942 86.9591 4.93728 86.7874 4.90195 86.6067C5.41424 86.5615 5.41424 86.1911 5.12276 85.9742V84.7184C5.60856 84.7455 5.21992 84.1582 5.34358 83.9323H5.78521V84.2485C5.42307 84.1763 5.42307 85.1069 5.78521 85.0346V85.1882C5.44957 87.3205 5.46724 90.4918 5.78521 92.4343V92.7415C5.59089 93.3198 6.18268 93.5818 5.78521 93.8438V94.3136C6.06786 95.0003 5.84704 95.0093 5.5644 95.5695V95.7231C5.74988 95.9038 5.85587 96.1478 5.78521 96.5092V99.816C5.80288 100.069 5.67922 100.412 6.00603 100.448V100.918C5.70572 100.963 5.82054 101.316 5.78521 101.551C5.16693 103.177 5.64389 104.966 5.78521 106.276V111.48C5.71455 112.474 5.82054 113.342 6.00603 114.155C6.68614 114.164 6.56249 113.604 6.67732 113.206C6.93347 112.971 6.93347 112.808 6.67732 112.574C7.18078 111.815 6.64199 111.291 6.89813 110.369C7.07479 110.396 7.11895 110.523 7.33977 110.523V111.3C6.79214 111.318 7.2956 111.824 7.56058 111.769C7.74607 111.797 7.77257 111.706 7.7814 111.616C7.79907 111.39 7.81673 111.173 7.56058 111.146C7.67541 110.911 7.88739 110.748 8.00222 110.514C8.44385 112.013 7.99338 114.588 8.67349 116.341C8.81482 117.127 8.38202 118.329 8.89431 118.862V119.802H9.11513C9.07096 119.937 9.20345 119.946 9.33594 119.955C9.35361 120.208 9.22995 120.561 9.55676 120.588C9.5126 120.723 9.64508 120.732 9.77757 120.741C9.73341 120.877 9.8659 120.886 9.99839 120.895C10.4842 120.922 10.705 120.768 10.6697 120.425C10.97 120.271 11.1113 120.009 11.341 119.793V117.434C11.8444 117.317 11.4293 116.549 11.5618 116.179C11.7914 117.38 12.7365 119.44 14.9005 119.802V120.118H15.1213C15.139 120.371 15.0153 120.714 15.3421 120.75C15.5453 121.03 16.1194 121.039 16.4551 121.22C16.4374 121.446 16.4197 121.663 16.6759 121.69V121.844C16.614 122.097 16.8879 122.115 16.8967 122.313H17.3383C17.6475 122.115 17.5591 121.627 17.5591 121.211V120.425C18.0449 120.452 17.6563 119.865 17.78 119.639V118.537C18.4512 118.374 18.1774 118.889 18.2216 119.169V120.75C18.5749 120.768 18.3983 121.148 18.8929 121.067V121.374C19.2109 121.545 19.4405 121.545 19.5642 121.22C19.8291 121.012 19.6525 120.976 19.5642 120.75V120.597H20.0058C19.9351 121.012 20.3149 121.112 20.8979 121.067H21.3395C21.7193 120.805 21.6133 120.208 22.0108 119.964C22.3111 119.919 22.1963 119.567 22.2316 119.332V119.016C22.5496 119.052 22.3111 119.485 22.6733 119.485C22.7086 119.982 23.1767 120.181 23.1149 120.741V120.895H23.3357C23.2739 121.148 23.5477 121.166 23.5565 121.365C23.742 121.392 23.7685 121.301 23.7773 121.211C24.2278 121.166 24.2101 120.786 24.6694 120.741H24.8902V121.058C24.8637 121.446 24.8549 121.816 25.1111 122.006C25.588 121.871 25.8972 121.618 25.7824 121.058H26.6744V121.211C26.9483 121.491 27.3634 121.663 27.5665 121.997C27.5224 122.449 27.54 122.856 28.2378 122.783C28.6 122.828 28.6176 122.639 28.9091 122.63V121.536H29.1299V120.597C29.3154 120.416 29.4214 120.172 29.3507 119.811C29.6422 119.621 29.704 119.747 30.022 119.811C29.9337 120.19 30.4283 120.154 30.2428 120.597V120.75C30.605 120.796 30.6226 120.606 30.9141 120.597C31.4264 119.964 30.9936 118.654 31.1349 117.76V116.657C31.3204 116.685 31.3469 116.594 31.3558 116.504C31.8504 116.486 31.4529 115.835 31.5766 115.555C32.0359 115.51 31.6296 114.859 32.2478 114.923V115.555C32.3892 116.133 31.9564 117.127 32.4687 117.443H32.6895C32.9898 117.416 33.3608 118.085 33.5816 117.597H33.8024C34.1115 118.094 34.0232 117.037 34.0232 116.811V115.862H34.244V114.444C34.4207 114.417 34.4648 114.281 34.6857 114.29V114.923H34.9065V115.239C35.039 115.519 34.6415 116.16 35.1273 116.188C35.1803 116.314 35.3128 116.368 35.5689 116.341V116.657C35.1714 116.639 35.0478 116.811 35.1273 117.127C34.8358 117.742 35.8604 117.742 35.5689 117.127C35.7632 116.323 36.7525 115.239 36.2402 114.453V113.82C36.5582 113.857 36.3197 114.29 36.6818 114.29C36.8143 114.67 36.3992 115.429 36.9027 115.546V117.434C36.9027 117.642 37.5209 117.633 37.5739 117.434V116.648C37.7859 116.531 37.9096 116.359 38.0156 116.179C38.2364 116.17 38.1922 115.989 38.2364 115.862V115.546C38.3689 115.537 38.5014 115.519 38.4572 115.393V112.086C38.6957 112.05 38.6074 111.769 38.8988 111.769V112.556C38.731 112.899 39.5083 113.287 39.3405 112.709C39.5701 112.61 39.5701 112.348 40.0117 112.393C39.9941 112.619 39.9764 112.836 40.2326 112.863V113.649C39.9941 114.046 41.0717 114.408 40.9038 113.802C41.2307 113.775 41.107 113.423 41.1247 113.17C41.0717 113.052 41.1158 112.863 40.9038 112.854V112.537C41.4073 112.375 40.9922 111.553 41.1247 111.119V109.077C41.425 109.032 41.3102 108.679 41.3455 108.445V104.044C41.5663 104.044 41.5221 103.855 41.5663 103.728C42.1846 103.981 42.1846 103.051 41.7871 103.096V102.942C41.7783 102.671 41.9549 102.536 42.2287 102.472C42.8117 102.798 42.0698 104.053 42.6704 104.361V106.719C43.059 106.818 42.6527 107.469 43.112 107.505V109.231C43.43 109.294 43.4918 109.42 43.7833 109.231V107.812C43.9599 107.839 44.0041 107.966 44.2249 107.966V112.537C44.2249 112.953 44.1366 113.441 44.4457 113.64C45.3467 113.333 44.6931 111.923 44.8874 111.119V109.7H45.1082V105.761C44.9845 105.535 45.3643 104.948 44.8874 104.975V104.189C45.382 104.171 44.9845 103.52 45.1082 103.24V98.0451C45.912 97.8915 45.4173 98.6686 45.5498 98.9848V99.7708C45.806 99.9606 45.806 100.331 45.7706 100.72V101.975C45.6116 102.87 46.1504 102.87 45.9915 101.975V99.6172H46.2123V98.9848H45.9915V98.6685C46.2211 97.8825 46.4596 95.19 45.9915 93.9432V93.3198C46.5832 92.9493 46.3448 92.4705 46.2123 91.9013V86.3899C46.7069 86.3718 46.3094 85.7213 46.4331 85.4502V85.2966C46.3536 84.6099 46.0444 84.8177 45.541 84.6641V84.3479C45.9208 84.1492 46.4154 84.0227 46.4331 83.5619V83.2456C46.2741 82.7668 46.6627 82.6674 46.6539 82.306V79.9388C46.3359 79.7491 46.2299 79.3967 46.2123 78.9901V78.6739C46.7246 78.457 46.2918 77.5806 46.4331 77.1018C46.7157 76.894 46.7157 76.5235 46.4331 76.3157C46.4949 75.7827 46.7864 75.4122 46.6539 74.7436V73.4787C46.4949 72.783 47.3252 71.9698 46.6539 71.4277V70.9579C47.6255 70.4429 46.7511 69.3135 46.8747 68.4371C47.2457 68.419 47.2457 67.3529 46.8747 67.3348V66.7024C47.3605 66.7295 46.9719 66.1422 47.0955 65.9163V65.1303C47.5283 65.1935 47.4223 64.4165 46.8747 64.6604V64.028C47.387 63.3955 46.9542 62.0854 47.0955 61.191C46.9719 60.9651 47.3517 60.3778 46.8747 60.4049V60.2513C47.0514 60.3236 47.1309 60.3236 47.2015 60.3236ZM3.76254 67.7233C3.54172 67.7233 3.49756 67.5968 3.32091 67.5697C3.3739 67.4433 3.32974 67.2626 3.54172 67.2535C3.79787 67.2806 3.78021 67.4975 3.76254 67.7233ZM2.87045 64.4165C3.18842 64.3804 3.25025 64.1545 3.54172 64.1003V64.5701C3.58589 65.1754 3.35624 64.6243 2.87045 64.7237V64.4165ZM3.76254 78.2673C3.79787 78.963 3.17075 78.1408 3.32091 77.7975C3.61239 77.7975 3.52406 78.0776 3.76254 78.1137V78.2673ZM3.76254 77.6439C3.3739 77.6529 3.0736 77.6077 2.87045 77.4903C2.68496 77.5174 2.65846 77.427 2.64963 77.3367C2.5613 77.1108 2.38465 77.0747 2.64963 76.8669H2.87045C2.90578 76.632 2.79095 76.2886 3.09126 76.2344C3.47107 76.3338 3.4534 76.7133 3.76254 76.8669V77.6439ZM3.76254 73.2347C3.96569 74.0027 2.98527 73.6955 3.32091 73.0812C3.30324 72.8282 3.4269 72.4848 3.10009 72.4487C3.44456 72.2228 3.29441 71.6446 3.32091 71.1928C3.8597 71.1386 3.21491 70.0002 3.99218 70.5604C3.99218 71.8614 3.81554 72.0963 3.76254 73.2347ZM3.98336 69.6117C3.63005 69.6298 3.80671 70.0092 3.31208 69.9279C3.25025 69.5123 3.39157 69.2503 3.98336 69.2954V69.6117ZM3.98336 68.8256C3.10892 69.2051 3.65655 67.2806 3.98336 68.672V68.8256ZM5.5379 53.0774H5.97953V53.5473C5.58206 53.5744 5.46724 53.3937 5.5379 53.0774ZM5.98837 76.6952C5.63507 78.9991 5.58207 81.4205 5.76756 83.4625C5.77639 83.7606 5.59974 83.7968 5.32592 83.6161V83.4625C4.98145 83.2366 5.13161 82.6584 5.10511 82.2066C5.14927 81.7097 4.95495 81.0501 5.32592 80.7881V78.2673H5.54674C5.86472 77.5716 4.79596 77.8517 4.87545 77.3186C5.9972 77.3999 5.1846 74.9695 5.98837 76.2163V76.6952ZM5.98837 72.1325C5.93538 72.259 5.80289 72.3132 5.54674 72.2861C5.53791 72.1867 5.51141 72.0963 5.32592 72.1325V71.8162C5.83822 71.5 5.57323 71.8524 5.9972 71.9698C5.98837 72.0241 5.98837 72.0783 5.98837 72.1325ZM5.98837 69.7743C5.66156 69.6388 5.51141 69.3768 5.54674 68.9883C6.28868 68.8166 5.89121 69.4762 5.98837 69.7743ZM6.20919 63.3142V65.6724H5.98837V65.0399C5.73223 65.0128 5.5909 65.0761 5.54674 65.1935H5.32592V62.0493C5.75872 61.986 5.34358 61.3265 6.21802 61.5795C6.20918 62.1577 6.20919 62.736 6.20919 63.3142ZM6.20919 60.4772H5.98837C5.53791 60.8657 6.69498 61.0916 5.54674 61.2632C5.51141 61.0735 5.58207 60.8115 5.32592 60.7934C5.69689 60.4772 5.30826 60.5947 5.32592 60.161V59.5285C5.51141 59.5556 5.53791 59.4653 5.54674 59.3749C6.42117 59.1219 5.62623 60.0525 6.21802 60.0074C6.20918 60.161 6.20919 60.3236 6.20919 60.4772ZM6.20919 55.4446C5.5909 56.1494 6.08553 56.5289 5.98837 57.1794C6.0502 57.4324 5.77639 57.4504 5.76756 57.6492H5.32592V57.333H5.76756C5.40542 56.6463 5.47608 55.3543 6.20919 54.9748V55.4446ZM5.5379 52.6076C5.77638 52.4631 5.60857 52.0294 6.20919 52.1378C6.25335 52.4811 6.02369 52.6347 5.5379 52.6076ZM6.43001 93.6992C6.69498 93.6721 6.61549 93.4101 6.65082 93.2294C6.69498 93.1029 6.87164 93.0758 6.87164 92.9132C6.77448 92.615 6.23569 92.6331 6.43001 92.1271C6.73915 92.1362 6.9158 92.0549 7.10128 91.9735V94.6479C6.92463 94.675 6.88047 94.8015 6.65965 94.8015V94.3317C6.69498 94.151 6.60665 94.0516 6.43883 94.0155C6.29751 93.88 6.16503 93.7354 6.43001 93.6992ZM7.10128 96.3827C7.07478 96.5724 7.03062 96.7531 6.65965 96.6989V96.3827C6.70381 96.1839 6.89813 96.2833 7.10128 96.3827ZM6.43001 97.3223V97.1687C6.43001 97.0151 6.60666 96.979 6.65082 96.8525C6.93347 96.9157 7.11012 97.0513 7.09245 97.3223C6.78331 97.3856 6.72148 97.5121 6.43001 97.3223ZM6.88047 105.038C7.39276 105.409 6.95996 106.448 7.10128 107.089C6.58899 106.71 7.02179 105.671 6.88047 105.038ZM7.3221 109.447C7.14544 109.484 7.06595 109.583 7.10128 109.764C6.61549 109.791 7.00412 109.203 6.88047 108.978C7.12778 109.014 7.22494 109.149 7.3221 109.294V109.447ZM8.21419 108.978C8.33785 108.752 7.95804 108.164 8.43501 108.192C8.31135 108.417 8.69999 109.005 8.21419 108.978ZM8.85014 79.5322C9.06213 79.5774 9.4331 79.5232 9.72458 79.5141C9.42427 79.5232 9.06213 79.5774 8.85014 79.5322ZM14.2822 99.1384C14.3264 99.1655 14.3794 99.1836 14.4147 99.2107C14.3746 99.1794 14.3299 99.155 14.2822 99.1384ZM14.6532 100.06C14.7415 99.7708 14.6974 99.4365 14.4501 99.2287C14.6974 99.4365 14.7504 99.7708 14.6532 100.06ZM34.6503 45.3163C34.6415 45.4338 34.6238 45.5512 34.615 45.6687V53.1497C34.6327 53.7099 34.6503 54.2701 34.6503 54.8393V77.8427C34.6503 80.1466 34.6415 83.0198 34.6327 85.9833C34.6415 90.2388 34.6503 94.2142 34.6503 96.8073H34.6415C34.6415 98.5963 34.6503 100.205 34.6503 101.469C34.2882 101.469 30.6668 101.524 29.2536 101.388C25.9855 101.072 23.4152 99.7708 21.4278 97.4578C19.1402 94.8738 17.9919 90.9887 17.9919 85.8116V78.3305C17.9743 77.7704 17.9566 77.2102 17.9566 76.641V53.6376C17.9566 51.3337 17.9654 48.4605 17.9743 45.497C17.9654 41.2415 17.9566 37.266 17.9566 34.673H17.9654C17.9654 32.884 17.9566 31.2758 17.9566 30.0108C18.3188 30.0108 21.9401 29.9566 23.3534 30.0922C26.6215 30.4084 29.1917 31.7094 31.1791 34.0224C33.2724 36.3896 34.403 39.8591 34.5797 44.4038C34.5973 44.8194 34.615 45.235 34.615 45.6687C34.6238 45.5422 34.6415 45.4338 34.6503 45.3163C34.668 45.0362 34.6768 44.7561 34.615 44.5122C34.6768 44.7561 34.6768 45.0362 34.6503 45.3163ZM20.2531 28.9899C20.5092 29.0441 20.6594 29.1706 20.8007 29.3061C20.9509 29.4326 21.101 29.5681 21.3572 29.6223C21.101 29.5681 20.9509 29.4416 20.8007 29.3061C20.6594 29.1796 20.5092 29.0441 20.2531 28.9899ZM25.3054 24.644C20.1206 24.644 15.9163 20.3433 15.9163 15.0397C15.9163 9.73608 20.1206 5.43538 25.3054 5.43538C30.4901 5.43538 34.6945 9.73608 34.6945 15.0397C34.6945 20.3433 30.4901 24.644 25.3054 24.644ZM35.6484 59.5737C35.4894 58.9683 35.3039 58.3991 35.1979 57.7667C35.3039 58.4082 35.4894 58.9774 35.6484 59.5737ZM35.4188 60.8476C35.5778 60.5675 35.3393 60.1429 35.7014 59.8086C35.3481 60.1429 35.5866 60.5585 35.4188 60.8476ZM36.1784 55.4989C36.0989 55.1465 36.2755 54.758 36.7172 54.514C36.2667 54.758 36.09 55.1465 36.1784 55.4989ZM36.8408 4.83003C36.8585 4.83906 36.8762 4.85713 36.885 4.86617C36.9027 4.88424 36.9115 4.90231 36.9292 4.92038C36.9027 4.88424 36.8673 4.85713 36.8408 4.83003ZM39.155 81.791C39.1815 81.782 39.208 81.7729 39.2433 81.7639L39.155 81.791ZM41.16 57.9022C40.9657 58.3359 40.7007 58.7153 40.9745 59.131C40.6919 58.7153 40.9568 58.3359 41.16 57.9022ZM40.736 68.2112C40.6389 68.4823 40.6477 68.6901 40.7095 68.8437C40.6477 68.6811 40.6389 68.4823 40.736 68.2112ZM45.4173 89.6063C45.7795 89.4979 45.7795 90.3472 45.4173 90.2388V89.6063ZM45.8678 91.9735C45.8511 91.9238 45.8511 91.8697 45.8678 91.8199V91.9735ZM45.8678 88.9739H46.0886C46.1416 89.272 45.8413 89.3263 45.8678 89.6063C45.4968 89.6063 45.7441 89.1727 45.4262 89.1365V88.8293C45.6028 88.8474 45.647 88.9829 45.8678 88.9739Z" fill="#80C241"/>
</svg>
