<svg width="503" height="242" viewBox="0 0 503 242" fill="none" xmlns="http://www.w3.org/2000/svg">
<path d="M498.744 103.041L0 120.417L4.25569 242L503 224.624L498.744 103.041Z" fill="#80C241"/>
<path d="M60.1549 21.0084L49.4715 30.431C45.7209 25.2135 41.9019 22.6046 38.0136 22.6046C36.1212 22.6046 34.573 23.1192 33.3688 24.1491C32.1645 25.1446 31.5624 26.2775 31.5624 27.5475C31.5624 28.8175 31.9926 30.019 32.8526 31.1519C34.0224 32.6624 37.5492 35.9061 43.4328 40.8839C48.938 45.4837 52.2757 48.384 53.4454 49.5855C56.3701 52.5378 58.4345 55.37 59.6387 58.0815C60.8775 60.7593 61.4969 63.6941 61.4969 66.8865C61.4969 73.0998 59.3463 78.2318 55.0454 82.2823C50.7444 86.3328 45.136 88.3582 38.22 88.3582C32.8181 88.3582 28.1042 87.0365 24.0788 84.3935C20.0876 81.7501 16.664 77.5967 13.8079 71.9328L25.9367 64.621C29.584 71.3148 33.7817 74.6616 38.5298 74.6616C41.0074 74.6616 43.0889 73.941 44.7749 72.4991C46.4608 71.0572 47.3039 69.3924 47.3039 67.5044C47.3039 65.788 46.6672 64.0716 45.3943 62.3555C44.1209 60.6391 41.3167 58.013 36.9816 54.4771C28.7236 47.7492 23.3907 42.5658 20.9821 38.927C18.5736 35.2541 17.3693 31.5983 17.3693 27.9595C17.3693 22.7076 19.3649 18.2107 23.3562 14.4689C27.3819 10.6929 32.3364 8.80492 38.22 8.80492C42.0052 8.80492 45.6007 9.68025 49.0071 11.4309C52.4476 13.1816 56.1637 16.3741 60.1549 21.0084ZM100.205 28.9894C105.504 28.9894 110.476 30.3108 115.121 32.9541C119.8 35.5975 123.448 39.1846 126.063 43.7156C128.678 48.2469 129.985 53.1386 129.985 58.3905C129.985 63.6769 128.66 68.6201 126.011 73.22C123.396 77.8199 119.818 81.4243 115.276 84.0328C110.734 86.6076 105.728 87.8949 100.257 87.8949C92.2056 87.8949 85.3242 85.0455 79.6125 79.3472C73.9354 73.6148 71.0966 66.6633 71.0966 58.4935C71.0966 49.7402 74.3138 42.4456 80.7481 36.6098C86.3907 31.5294 92.8764 28.9894 100.205 28.9894ZM100.412 42.2224C96.0422 42.2224 92.3948 43.7501 89.4701 46.805C86.5799 49.8259 85.135 53.7048 85.135 58.4422C85.135 63.3166 86.5626 67.264 89.4186 70.2849C92.3088 73.3058 95.9562 74.8162 100.36 74.8162C104.765 74.8162 108.429 73.2886 111.354 70.2336C114.278 67.1782 115.74 63.248 115.74 58.4422C115.74 53.6363 114.295 49.7402 111.405 46.7537C108.549 43.7328 104.885 42.2224 100.412 42.2224ZM196.512 41.7591L184.796 48.1953C182.594 45.8953 180.409 44.2991 178.242 43.4066C176.108 42.5141 173.597 42.0681 170.707 42.0681C165.442 42.0681 161.176 43.6471 157.907 46.805C154.673 49.9289 153.055 53.9453 153.055 58.8541C153.055 63.6255 154.621 67.5217 157.752 70.5426C160.883 73.5631 164.995 75.0735 170.087 75.0735C176.384 75.0735 181.287 72.9283 184.796 68.6374L195.893 76.2065C189.871 83.9987 181.373 87.8949 170.397 87.8949C160.522 87.8949 152.78 84.977 147.172 79.1412C141.598 73.3058 138.81 66.4745 138.81 58.6481C138.81 53.2243 140.17 48.2297 142.888 43.6643C145.606 39.0985 149.391 35.5114 154.242 32.9028C159.128 30.2939 164.582 28.9894 170.603 28.9894C176.177 28.9894 181.183 30.1051 185.622 32.3362C190.061 34.5331 193.691 37.6742 196.512 41.7591ZM214.782 7.3632C217.26 7.3632 219.376 8.25568 221.131 10.0407C222.92 11.8257 223.814 13.9883 223.814 16.5284C223.814 19.0343 222.937 21.1799 221.182 22.9649C219.427 24.7154 217.329 25.591 214.886 25.591C212.374 25.591 210.223 24.6985 208.434 22.9136C206.679 21.0942 205.802 18.8972 205.802 16.3227C205.802 13.851 206.679 11.7399 208.434 9.98923C210.189 8.23853 212.305 7.3632 214.782 7.3632ZM207.712 30.431H221.853V86.453H207.712V30.431ZM290.909 62.5098H245.646C246.3 66.4917 248.037 69.6669 250.859 72.0358C253.715 74.3698 257.345 75.5372 261.749 75.5372C267.013 75.5372 271.538 73.7005 275.323 70.0276L287.193 75.5885C284.234 79.7764 280.69 82.883 276.561 84.9084C272.432 86.8994 267.529 87.8949 261.852 87.8949C253.044 87.8949 245.87 85.1313 240.33 79.6049C234.791 74.044 232.021 67.0925 232.021 58.7511C232.021 50.2034 234.773 43.1149 240.279 37.4854C245.818 31.8212 252.751 28.9894 261.078 28.9894C269.921 28.9894 277.112 31.8212 282.651 37.4854C288.191 43.1149 290.961 50.5641 290.961 59.8324L290.909 62.5098ZM276.768 51.4394C275.838 48.3155 273.998 45.7755 271.245 43.8186C268.527 41.8621 265.362 40.8839 261.749 40.8839C257.826 40.8839 254.386 41.9823 251.426 44.1793C249.569 45.5523 247.848 47.9724 246.265 51.4394H276.768ZM263.813 0L280.484 0L261.594 20.1844L251.478 20.1844L263.813 0ZM304.072 9.78324H318.109V30.431H326.469V42.5314H318.109V86.453H304.072V42.5314H296.845V30.431H304.072V9.78324ZM390.312 62.5098H345.048C345.703 66.4917 347.44 69.6669 350.263 72.0358C353.116 74.3698 356.749 75.5372 361.153 75.5372C366.417 75.5372 370.941 73.7005 374.725 70.0276L386.595 75.5885C383.639 79.7764 380.095 82.883 375.965 84.9084C371.836 86.8994 366.931 87.8949 361.255 87.8949C352.447 87.8949 345.274 85.1313 339.735 79.6049C334.193 74.044 331.423 67.0925 331.423 58.7511C331.423 50.2034 334.175 43.1149 339.682 37.4854C345.221 31.8212 352.155 28.9894 360.48 28.9894C369.324 28.9894 376.515 31.8212 382.054 37.4854C387.596 43.1149 390.365 50.5641 390.365 59.8324L390.312 62.5098ZM376.17 51.4394C375.243 48.3155 373.4 45.7755 370.648 43.8186C367.932 41.8621 364.765 40.8839 361.153 40.8839C357.228 40.8839 353.789 41.9823 350.83 44.1793C348.973 45.5523 347.25 47.9724 345.668 51.4394H376.17ZM363.218 0L379.887 0L360.998 20.1844H350.883L363.218 0ZM472.892 30.431H486.929V86.453H472.892V80.5318C470.137 83.1404 467.368 85.0287 464.581 86.1957C461.829 87.3282 458.834 87.8949 455.6 87.8949C448.342 87.8949 442.063 85.0972 436.764 79.5019C431.465 73.8721 428.815 66.8865 428.815 58.5452C428.815 49.8945 431.377 42.8059 436.503 37.2795C441.633 31.7527 447.859 28.9894 455.187 28.9894C458.559 28.9894 461.727 29.6243 464.683 30.8946C467.642 32.1646 470.38 34.0698 472.892 36.6098V30.431ZM458.077 41.9651C453.708 41.9651 450.079 43.5096 447.189 46.5991C444.297 49.6544 442.852 53.5846 442.852 58.3905C442.852 63.2308 444.314 67.2127 447.239 70.3366C450.198 73.4601 453.827 75.0222 458.129 75.0222C462.569 75.0222 466.251 73.4945 469.175 70.4396C472.099 67.3501 473.562 63.3166 473.562 58.3392C473.562 53.4648 472.099 49.5169 469.175 46.4961C466.251 43.4755 462.551 41.9651 458.077 41.9651ZM456.685 0L469.02 20.1844H458.904L440.016 0L456.685 0Z" fill="#202427"/>
<path d="M53.1357 137.254H67.2773L84.8253 190.084L102.631 137.254H116.566L129.366 212.997H115.431L107.276 165.162L91.1218 212.997H78.3737L62.426 165.162L54.1166 212.997H40.0265L53.1357 137.254ZM139.946 137.254H154.294V212.997H139.946V137.254ZM210.395 147.552L199.712 156.975C195.961 151.757 192.142 149.148 188.254 149.148C186.362 149.148 184.814 149.663 183.609 150.693C182.405 151.688 181.803 152.821 181.803 154.091C181.803 155.361 182.233 156.563 183.093 157.696C184.263 159.206 187.79 162.45 193.673 167.428C199.179 172.028 202.516 174.928 203.686 176.129C206.611 179.082 208.675 181.914 209.879 184.625C211.118 187.303 211.737 190.238 211.737 193.43C211.737 199.644 209.587 204.776 205.286 208.826C200.985 212.877 195.377 214.902 188.461 214.902C183.059 214.902 178.345 213.58 174.319 210.937C170.328 208.294 166.904 204.141 164.048 198.477L176.177 191.165C179.825 197.859 184.022 201.205 188.77 201.205C191.248 201.205 193.329 200.485 195.015 199.043C196.701 197.601 197.544 195.936 197.544 194.048C197.544 192.332 196.908 190.615 195.635 188.899C194.361 187.183 191.557 184.557 187.222 181.021C178.964 174.293 173.631 169.11 171.223 165.471C168.814 161.798 167.61 158.142 167.61 154.503C167.61 149.251 169.605 144.755 173.597 141.013C177.622 137.237 182.577 135.349 188.461 135.349C192.246 135.349 195.841 136.224 199.248 137.975C202.688 139.725 206.404 142.918 210.395 147.552ZM265.413 147.552L254.729 156.975C250.979 151.757 247.16 149.148 243.272 149.148C241.38 149.148 239.831 149.663 238.627 150.693C237.423 151.688 236.82 152.821 236.82 154.091C236.82 155.361 237.251 156.563 238.111 157.696C239.281 159.206 242.807 162.45 248.691 167.428C254.196 172.028 257.534 174.928 258.704 176.129C261.628 179.082 263.693 181.914 264.897 184.625C266.136 187.303 266.755 190.238 266.755 193.43C266.755 199.644 264.605 204.776 260.304 208.826C256.003 212.877 250.394 214.902 243.478 214.902C238.076 214.902 233.363 213.58 229.337 210.937C225.346 208.294 221.922 204.141 219.066 198.477L231.195 191.165C234.842 197.859 239.04 201.205 243.788 201.205C246.265 201.205 248.347 200.485 250.033 199.043C251.719 197.601 252.562 195.936 252.562 194.048C252.562 192.332 251.925 190.615 250.652 188.899C249.379 187.183 246.575 184.557 242.24 181.021C233.982 174.293 228.649 169.11 226.24 165.471C223.832 161.798 222.627 158.142 222.627 154.503C222.627 149.251 224.623 144.755 228.614 141.013C232.64 137.237 237.595 135.349 243.478 135.349C247.263 135.349 250.859 136.224 254.265 137.975C257.706 139.725 261.422 142.918 265.413 147.552ZM279.606 137.254H293.953V212.997H279.606V137.254ZM346.133 135.349C356.869 135.349 366.089 139.228 373.798 146.986C381.539 154.744 385.408 164.201 385.408 175.357C385.408 186.41 381.589 195.765 373.953 203.42C366.347 211.075 357.108 214.902 346.235 214.902C334.848 214.902 325.384 210.972 317.851 203.111C310.315 195.25 306.549 185.913 306.549 175.1C306.549 167.857 308.303 161.197 311.812 155.121C315.322 149.045 320.138 144.24 326.262 140.704C332.42 137.134 339.044 135.349 346.133 135.349ZM345.978 149.457C338.96 149.457 333.058 151.894 328.277 156.769C323.492 161.644 321.103 167.839 321.103 175.357C321.103 183.733 324.112 190.358 330.134 195.233C334.813 199.043 340.182 200.948 346.235 200.948C353.085 200.948 358.916 198.477 363.732 193.533C368.549 188.59 370.959 182.497 370.959 175.254C370.959 168.045 368.531 161.952 363.679 156.975C358.831 151.963 352.93 149.457 345.978 149.457ZM399.085 137.254H412.918L445.484 187.097V137.254H459.937V212.997H446.051L413.538 163.308V212.997H399.085V137.254Z" fill="#202427"/>
</svg>
