<svg width="52" height="60" viewBox="0 0 52 60" fill="none" xmlns="http://www.w3.org/2000/svg">
<path d="M50.2666 56.4423H40.3652C26.7011 55.6201 16.4287 43.8383 16.3404 29.6261C16.4287 15.4229 26.7011 3.63211 40.3652 2.80992H46.7336C47.4932 2.80992 48.1026 2.17746 48.1026 1.40947C48.1026 0.64149 47.4843 0.00903013 46.7336 0.00903013H29.0241L28.9976 0C28.927 0 28.8651 0.00903013 28.7945 0.00903013H28.6885C12.9663 0.180697 0.150164 13.3087 0.00884128 29.4002C0.00884128 29.4725 0 29.5357 0 29.599V29.6532C0 29.7255 0.00884128 29.7887 0.00884128 29.852C0.150164 45.9344 12.9663 59.0715 28.6885 59.2431H28.7945C28.8651 59.2431 28.927 59.2522 28.9976 59.2522L29.0241 59.2431H50.2666C51.0262 59.2431 51.6357 58.6107 51.6357 57.8427C51.6357 57.0747 51.0262 56.4423 50.2666 56.4423Z" fill="#202427"/>
</svg>
